<svg width="607" height="621" viewBox="0 0 607 621" fill="none" xmlns="http://www.w3.org/2000/svg">
<path d="M350.318 393.591C383.342 393.591 410.114 366.819 410.114 333.795C410.114 300.771 383.342 274 350.318 274C317.294 274 290.523 300.771 290.523 333.795C290.523 366.819 317.294 393.591 350.318 393.591Z" stroke="white" stroke-width="17"/>
<path d="M471.358 541.576C471.358 509.474 458.606 478.687 435.907 455.988C413.207 433.289 382.42 420.536 350.318 420.536C318.217 420.536 287.43 433.289 264.73 455.988C242.031 478.687 229.278 509.474 229.278 541.576H471.358Z" stroke="white" stroke-width="17"/>
<path d="M524.585 280.013C521.302 280.013 518.445 278.803 516.09 276.415C513.774 274.062 512.599 271.214 512.599 267.947V226.173C512.599 222.923 513.774 220.083 516.09 217.732C518.451 215.327 521.309 214.105 524.585 214.105C527.884 214.105 530.76 215.326 533.133 217.731C535.45 220.084 536.625 222.924 536.625 226.173V267.947C536.625 271.215 535.45 274.064 533.132 276.414C530.778 278.803 527.903 280.013 524.585 280.013ZM524.585 219.176C522.67 219.176 521.119 219.847 519.706 221.286C518.335 222.679 517.67 224.276 517.67 226.173V267.947C517.67 269.888 518.316 271.448 519.702 272.856C521.106 274.279 522.657 274.943 524.585 274.943C526.521 274.943 528.137 274.259 529.521 272.854C530.908 271.448 531.555 269.888 531.555 267.947V226.173C531.555 224.276 530.89 222.679 529.521 221.29C528.098 219.848 526.53 219.176 524.585 219.176ZM524.585 206.014C521.316 206.014 518.453 204.844 516.076 202.536C513.698 200.089 512.519 197.227 512.519 193.975C512.519 190.69 513.702 187.823 516.037 185.453C518.431 183.092 521.298 181.908 524.585 181.908C527.837 181.908 530.7 183.087 533.094 185.416C535.454 187.842 536.625 190.706 536.625 193.975C536.625 197.211 535.459 200.07 533.158 202.471C530.678 204.848 527.82 206.014 524.585 206.014ZM524.585 186.978C522.651 186.978 521.028 187.651 519.623 189.038C518.263 190.418 517.589 192.042 517.589 193.975C517.589 195.887 518.268 197.515 519.661 198.95C521.026 200.275 522.654 200.943 524.585 200.943C526.495 200.943 528.126 200.27 529.574 198.886C530.881 197.516 531.554 195.885 531.554 193.975C531.554 192.044 530.885 190.417 529.508 189C528.126 187.657 526.497 186.978 524.585 186.978Z" fill="white" stroke="white" stroke-width="6"/>
<path d="M524.567 312.203C511.228 312.203 497.904 308.774 485.828 301.945L450.239 305.103C449.28 305.177 448.382 304.737 447.874 303.937C447.367 303.136 447.347 302.12 447.825 301.3L460.66 279.298C458.561 276.362 456.656 273.265 454.985 270.071C434.856 231.706 449.694 184.114 488.063 163.984C526.428 143.855 574.027 158.695 594.157 197.063C614.285 235.438 599.443 283.032 561.07 303.16C549.566 309.194 537.059 312.203 524.567 312.203ZM486.397 296.814C486.841 296.814 487.279 296.931 487.667 297.154C509.68 309.896 536.239 310.462 558.716 298.668C594.611 279.84 608.496 235.316 589.666 199.417C570.836 163.527 526.313 149.642 490.417 168.475C473.033 177.596 460.239 192.943 454.394 211.688C448.55 230.433 450.355 250.332 459.476 267.717C461.285 271.172 463.385 274.505 465.717 277.623C466.327 278.439 466.389 279.541 465.877 280.42L454.676 299.619L486.173 296.824C486.247 296.817 486.322 296.814 486.397 296.814Z" fill="white" stroke="white" stroke-width="6"/>
<path d="M184.182 182.187C181.483 182.187 179.167 179.998 179.167 177.298C179.167 174.599 181.23 172.41 183.929 172.41H184.182C186.882 172.41 189.071 174.599 189.071 177.298C189.071 179.998 186.882 182.187 184.182 182.187Z" fill="white" stroke="white" stroke-width="6"/>
<path d="M219.805 182.187C217.106 182.187 214.784 179.998 214.784 177.298C214.784 174.599 216.836 172.41 219.536 172.41H219.806C222.505 172.41 224.694 174.599 224.694 177.298C224.694 179.998 222.505 182.187 219.805 182.187Z" fill="white" stroke="white" stroke-width="6"/>
<path d="M255.412 182.187C252.713 182.187 250.39 179.998 250.39 177.298C250.39 174.599 252.443 172.41 255.142 172.41H255.412C258.112 172.41 260.301 174.599 260.301 177.298C260.301 179.998 258.112 182.187 255.412 182.187Z" fill="white" stroke="white" stroke-width="6"/>
<path d="M59.5871 105.362C56.8878 105.362 54.5557 103.173 54.5557 100.474C54.5557 97.7744 56.5989 95.5854 59.2982 95.5854H59.5871C62.2864 95.5854 64.4753 97.7744 64.4753 100.474C64.4753 103.173 62.2864 105.362 59.5871 105.362Z" fill="white" stroke="white" stroke-width="6"/>
<path d="M99.5187 105.362C96.8195 105.362 94.4873 103.173 94.4873 100.474C94.4873 97.7744 96.533 95.5854 99.2323 95.5854H99.5187C102.218 95.5854 104.407 97.7744 104.407 100.474C104.407 103.173 102.219 105.362 99.5187 105.362Z" fill="white" stroke="white" stroke-width="6"/>
<path d="M139.451 105.362C136.752 105.362 134.419 103.173 134.419 100.474C134.419 97.7744 136.465 95.5854 139.164 95.5854H139.451C142.15 95.5854 144.339 97.7744 144.339 100.474C144.339 103.173 142.15 105.362 139.451 105.362Z" fill="white" stroke="white" stroke-width="6"/>
<path d="M274.419 109.692C256.539 94.9984 234.013 88.1578 210.982 90.4015C205.813 90.9074 200.781 91.9222 195.883 93.2948C194.881 77.8779 190.169 62.8779 182.096 49.558C168.732 27.4989 147.583 11.9656 122.538 5.81915C97.4973 -0.326812 71.5526 3.65171 49.5008 17.0156C3.96754 44.6003 -10.635 104.085 16.9492 149.62C19.1425 153.227 21.5651 156.693 24.1764 159.957L13.8105 191.521C13.2473 193.242 13.679 195.132 14.9348 196.438C15.8704 197.407 17.1472 197.935 18.4553 197.935C18.9064 197.935 19.3601 197.872 19.8064 197.743L58.0337 186.757C82.0779 198.198 109.296 199.217 133.93 189.78C137.049 210.137 147.278 229.474 164.398 243.549C187.011 262.137 216.97 268.002 244.908 259.417L277.063 273.89C277.705 274.179 278.39 274.32 279.07 274.32C280.137 274.32 281.197 273.969 282.071 273.291C283.5 272.179 284.197 270.37 283.885 268.587L278.805 239.687C281.474 237.162 283.997 234.458 286.329 231.622C316.652 194.72 311.308 140.021 274.419 109.692ZM60.6763 177.167C59.5808 176.623 58.3231 176.506 57.1392 176.843L25.9816 185.798L34.3043 160.452C34.8342 158.836 34.4881 157.061 33.3878 155.764C30.4353 152.284 27.7145 148.508 25.3085 144.549C0.518909 103.629 13.6443 50.169 54.5684 25.3769C74.3838 13.3617 97.6913 9.79083 120.208 15.3116C142.716 20.8372 161.725 34.7975 173.735 54.6251C181.45 67.3521 185.699 81.7909 186.208 96.5646C173.217 101.935 161.666 110.452 152.49 121.621C138.586 138.541 132.269 159.197 132.965 179.535C109.646 189.324 83.494 188.577 60.6763 177.167ZM278.777 225.415C276.185 228.568 273.329 231.537 270.283 234.244C269.013 235.37 268.421 237.074 268.715 238.745L272.657 261.186L247.214 249.732C246.576 249.445 245.891 249.302 245.207 249.302C244.688 249.302 244.168 249.383 243.669 249.55C218.424 257.911 191.107 252.854 170.608 235.998C137.88 209.091 133.142 160.567 160.042 127.827C173.074 111.966 191.503 102.13 211.934 100.132C232.375 98.142 252.35 104.212 268.211 117.244C300.937 144.15 305.675 192.677 278.777 225.415Z" fill="white" stroke="white" stroke-width="6"/>
<path d="M206.452 421.849C206.201 419.953 204.282 418.631 202.416 419.092L24.021 463.35C22.8608 463.638 21.9474 464.534 21.6396 465.689C21.3317 466.845 21.6763 468.077 22.5402 468.904L68.273 512.747L59.1985 569.032C58.8444 571.235 60.8293 573.159 62.9997 572.788L122.341 562.508L178.736 594.339C179.236 594.621 179.793 594.762 180.35 594.762C180.85 594.762 181.35 594.648 181.812 594.419C182.786 593.935 183.458 592.998 183.603 591.919L206.459 422.717C206.498 422.425 206.49 422.135 206.452 421.849ZM31.3816 468.287L186.439 429.819L72.7599 507.957L31.3816 468.287ZM120.875 556.099L66.4121 565.535L74.6155 514.646L192.911 433.336L120.875 556.099ZM177.746 586.242L127.455 557.855L197.767 438.031L177.746 586.242Z" fill="white" stroke="white" stroke-width="5"/>
<path d="M47.1247 582.827L31.7162 599.924C30.5015 601.27 30.6104 603.345 31.9564 604.558C32.5829 605.124 33.37 605.403 34.1518 605.403C35.0491 605.403 35.9434 605.037 36.591 604.317L51.9995 587.221C53.2141 585.875 53.1052 583.8 51.7592 582.587C50.4149 581.375 48.338 581.483 47.1247 582.827Z" fill="white" stroke="white" stroke-width="5"/>
<path d="M19.2402 508.805L3.84449 525.899C2.63145 527.247 2.74041 529.323 4.08801 530.536C4.71455 531.1 5.49995 531.378 6.28205 531.378C7.181 531.378 8.07372 531.013 8.7229 530.292L24.1186 513.197C25.3316 511.85 25.2227 509.774 23.8751 508.561C22.5252 507.35 20.4549 507.457 19.2402 508.805Z" fill="white" stroke="white" stroke-width="5"/>
<path d="M133.68 595.376L118.285 612.459C117.07 613.805 117.179 615.881 118.525 617.094C119.151 617.659 119.938 617.938 120.72 617.938C121.617 617.938 122.512 617.573 123.159 616.853L138.555 599.77C139.77 598.423 139.661 596.348 138.315 595.135C136.97 593.924 134.893 594.031 133.68 595.376Z" fill="white" stroke="white" stroke-width="5"/>
</svg>
