<svg width="165" height="168" viewBox="0 0 165 168" fill="none" xmlns="http://www.w3.org/2000/svg">
<path d="M35.2713 92.3726C29.9701 92.3726 29.9701 100.415 35.2713 100.415H95.1281C100.429 100.415 100.429 92.3726 95.1281 92.3726H35.2713Z" fill="white"/>
<path d="M35.2713 127.062C29.9701 127.062 29.9701 135.105 35.2713 135.105H95.1281C100.429 135.105 100.429 127.062 95.1281 127.062H35.2713Z" fill="white"/>
<path fill-rule="evenodd" clip-rule="evenodd" d="M108.839 167.335C114.138 167.335 114.138 159.293 108.839 159.293H15.771V59.4855C15.771 54.2061 7.71191 54.208 7.71191 59.4872V163.313C7.71191 165.534 9.51538 167.335 11.7405 167.335H108.839Z" fill="white"/>
<path fill-rule="evenodd" clip-rule="evenodd" d="M134.546 6.5835H55.6805C50.3793 6.5835 50.3793 14.626 55.6805 14.626L130.518 14.6261V80.8484C130.518 86.1387 138.577 86.1387 138.577 80.8484V10.6058C138.577 8.38521 136.772 6.5835 134.546 6.5835Z" fill="white"/>
<path fill-rule="evenodd" clip-rule="evenodd" d="M35.2713 74.5381C29.9701 74.5381 29.9701 82.581 35.2713 82.581H95.1281C100.429 82.581 100.429 74.5381 95.1281 74.5381H35.2713Z" fill="white"/>
<path fill-rule="evenodd" clip-rule="evenodd" d="M35.2713 110.207C29.9701 110.207 29.9701 118.25 35.2713 118.25H95.1281C100.429 118.25 100.429 110.207 95.1281 110.207H35.2713Z" fill="white"/>
<path fill-rule="evenodd" clip-rule="evenodd" d="M154.824 116.492C154.824 106.784 146.939 98.915 137.21 98.915C127.485 98.915 119.599 106.787 119.599 116.492C119.599 119.765 120.495 122.827 122.055 125.451C114.183 130.203 109.116 138.521 108.571 147.711C108.261 152.982 116.289 153.451 116.599 148.182C117.027 140.953 121.352 134.541 127.879 131.401C130.584 133.092 133.783 134.068 137.21 134.068C140.378 134.068 143.349 133.234 145.918 131.773C152.07 135.038 156.071 141.23 156.483 148.182C156.791 153.451 164.821 152.982 164.511 147.711C163.992 138.922 159.327 130.906 151.994 126.05C153.783 123.3 154.824 120.018 154.824 116.492ZM137.21 106.958C131.935 106.958 127.658 111.227 127.658 116.492C127.658 121.757 131.935 126.025 137.21 126.025C142.487 126.025 146.765 121.757 146.765 116.492C146.765 111.227 142.488 106.958 137.21 106.958Z" fill="white"/>
<path fill-rule="evenodd" clip-rule="evenodd" d="M35.2713 57.293C29.9701 57.293 29.9701 65.3358 35.2713 65.3358H95.1281C100.429 65.3358 100.429 57.293 95.1281 57.293H35.2713Z" fill="white"/>
<path d="M27.0001 45V3M27.0001 45L6 26.5M27.0001 45L46 26.5" stroke="white" stroke-width="6" stroke-linecap="round" stroke-linejoin="round"/>
</svg>
