<svg width="500" height="500" viewBox="0 0 500 500" fill="none" xmlns="http://www.w3.org/2000/svg">
<path d="M111.912 239.434C112.869 239.434 113.865 239.604 114.9 239.946C115.945 240.278 116.746 240.933 117.303 241.909C117.752 242.69 117.977 243.638 117.977 244.751C117.957 245.806 117.654 246.743 117.068 247.563C116.648 248.179 115.999 248.687 115.12 249.087C116.507 249.536 117.522 250.312 118.167 251.416C118.655 252.285 118.899 253.33 118.899 254.551C118.88 255.713 118.548 256.748 117.903 257.656C117.347 258.447 116.561 259.038 115.545 259.429C114.529 259.81 113.597 260 112.747 260H103.562C103.357 260 103.255 259.897 103.255 259.692C103.255 259.448 103.499 259.238 103.987 259.062C104.476 258.887 104.72 258.486 104.72 257.861V241.572C104.72 240.957 104.476 240.562 103.987 240.386C103.499 240.21 103.255 239.995 103.255 239.741C103.255 239.536 103.357 239.434 103.562 239.434H111.912ZM107.356 249.937V258.931H110.667C111.38 258.931 112.098 258.828 112.82 258.623C113.553 258.408 114.183 258.042 114.71 257.524C115.521 256.733 115.926 255.688 115.926 254.39C115.926 253.14 115.501 252.095 114.651 251.255C113.733 250.376 112.508 249.937 110.975 249.937H107.356ZM107.356 248.662H111.399C112.552 248.535 113.479 248.135 114.183 247.461C114.915 246.748 115.281 245.801 115.281 244.619C115.281 243.467 114.896 242.52 114.124 241.777C113.294 240.986 112.19 240.591 110.813 240.591H107.356V248.662ZM136.1 240.107C133.102 240.117 131.007 241.064 129.815 242.949C128.624 244.824 128.028 247.08 128.028 249.717C128.028 252.363 128.775 254.624 130.27 256.499C131.764 258.364 133.707 259.307 136.1 259.326H136.173C138.507 259.326 140.426 258.33 141.93 256.338C143.414 254.365 144.156 252.188 144.156 249.805V249.717C144.137 247.285 143.502 245.078 142.252 243.096C141.002 241.104 138.951 240.107 136.1 240.107ZM136.1 238.818H136.246C139.4 238.818 142.062 239.785 144.229 241.719C146.251 243.525 147.262 245.908 147.262 248.867C147.262 249.131 147.252 249.399 147.232 249.673C147.027 253.032 145.86 255.64 143.731 257.495C141.612 259.341 139.059 260.347 136.07 260.513C135.846 260.522 135.621 260.527 135.396 260.527C132.682 260.527 130.279 259.59 128.189 257.715C126.041 255.801 124.967 253.296 124.967 250.2C124.967 250.024 124.972 249.849 124.981 249.673C125.099 246.343 126.173 243.711 128.204 241.777C130.245 239.844 132.877 238.857 136.1 238.818ZM158.09 241.499L164.301 257.407L170.951 243.784C171.078 243.53 171.142 243.301 171.142 243.096C171.142 242.92 171.098 242.764 171.01 242.627C170.824 242.334 170.536 241.953 170.146 241.484L169.428 240.649L171.244 239.272C171.322 239.204 171.405 239.17 171.493 239.17C171.591 239.17 171.698 239.219 171.815 239.316L173.017 240.547C173.271 240.811 173.397 241.133 173.397 241.514C173.397 241.729 173.358 241.958 173.28 242.202C173.046 242.896 172.699 243.711 172.24 244.648L165.062 259.531C164.994 259.697 164.926 259.824 164.857 259.912C164.779 259.971 164.701 260 164.623 260H162.411C162.313 260 162.235 259.961 162.177 259.883C162.147 259.854 162.094 259.741 162.016 259.546C161.947 259.351 161.898 259.209 161.869 259.121L156.332 243.74C155.941 242.705 155.658 241.982 155.482 241.572C155.307 241.211 155.019 240.884 154.618 240.591C154.384 240.444 154.154 240.327 153.93 240.239C153.715 240.142 153.539 240.044 153.402 239.946C153.314 239.897 153.256 239.829 153.227 239.741C153.197 239.702 153.183 239.658 153.183 239.609C153.183 239.58 153.192 239.551 153.212 239.521C153.251 239.463 153.31 239.434 153.388 239.434H158.354C158.441 239.434 158.529 239.463 158.617 239.521C158.705 239.6 158.764 239.673 158.793 239.741C158.803 239.771 158.808 239.795 158.808 239.814C158.808 239.912 158.754 240.01 158.646 240.107C158.549 240.195 158.437 240.293 158.31 240.4C158.192 240.498 158.104 240.62 158.046 240.767C158.007 240.864 157.987 240.967 157.987 241.074C157.987 241.211 158.021 241.353 158.09 241.499ZM184.899 241.587V257.847C184.899 258.491 185.144 258.901 185.632 259.077C186.12 259.243 186.364 259.448 186.364 259.692C186.364 259.897 186.262 260 186.057 260H181.091C180.896 260 180.798 259.897 180.798 259.692C180.798 259.448 181.042 259.243 181.53 259.077C182.019 258.901 182.263 258.496 182.263 257.861V241.587C182.263 240.952 182.019 240.552 181.53 240.386C181.042 240.21 180.798 239.995 180.798 239.741C180.798 239.536 180.9 239.434 181.105 239.434H186.057C186.262 239.434 186.364 239.536 186.364 239.741C186.364 239.995 186.12 240.21 185.632 240.386C185.144 240.552 184.899 240.952 184.899 241.587ZM199.521 258.623H205.776C206.685 258.623 207.451 258.276 208.076 257.583C208.711 256.88 209.189 256.333 209.512 255.942C209.688 255.728 209.824 255.62 209.922 255.62C210.127 255.62 210.229 255.723 210.229 255.928C210.229 256.055 210.22 256.157 210.2 256.235L209.131 260H195.713C195.508 260 195.405 259.897 195.405 259.692C195.405 259.448 195.649 259.243 196.138 259.077C196.626 258.901 196.87 258.496 196.87 257.861V241.587C196.87 240.962 196.626 240.562 196.138 240.386C195.649 240.21 195.405 239.995 195.405 239.741C195.405 239.536 195.508 239.434 195.713 239.434H200.679C200.874 239.434 200.972 239.536 200.972 239.741C200.972 239.995 200.728 240.21 200.239 240.386C199.751 240.562 199.507 240.962 199.507 241.587L199.521 258.623ZM222.347 241.587V257.847C222.347 258.491 222.591 258.901 223.079 259.077C223.567 259.243 223.812 259.448 223.812 259.692C223.812 259.897 223.709 260 223.504 260H218.538C218.343 260 218.245 259.897 218.245 259.692C218.245 259.448 218.489 259.243 218.978 259.077C219.466 258.901 219.71 258.496 219.71 257.861V241.587C219.71 240.952 219.466 240.552 218.978 240.386C218.489 240.21 218.245 239.995 218.245 239.741C218.245 239.536 218.348 239.434 218.553 239.434H223.504C223.709 239.434 223.812 239.536 223.812 239.741C223.812 239.995 223.567 240.21 223.079 240.386C222.591 240.552 222.347 240.952 222.347 241.587ZM234.01 251.387V241.572C234.01 240.947 233.766 240.552 233.277 240.386C232.789 240.21 232.545 239.995 232.545 239.741C232.545 239.536 232.647 239.434 232.853 239.434H237.818C238.014 239.434 238.111 239.536 238.111 239.741C238.111 239.995 237.872 240.205 237.394 240.371C236.915 240.527 236.676 240.918 236.676 241.543V249.438C236.676 250.933 236.725 252.256 236.822 253.408C236.92 254.561 237.174 255.532 237.584 256.323C237.984 257.114 238.6 257.715 239.43 258.125C240.26 258.535 241.407 258.74 242.872 258.74C245.45 258.74 247.198 257.725 248.116 255.693C248.771 254.268 249.098 252.183 249.098 249.438V241.587C249.098 240.962 248.854 240.562 248.365 240.386C247.877 240.21 247.633 239.995 247.633 239.741C247.633 239.536 247.735 239.434 247.94 239.434H251.676C251.871 239.434 251.969 239.536 251.969 239.741C251.969 239.995 251.725 240.21 251.236 240.386C250.758 240.562 250.519 240.962 250.519 241.587V251.387C250.509 252.842 250.372 254.175 250.108 255.386C249.854 256.587 249.381 257.598 248.688 258.418C247.447 259.854 245.509 260.571 242.872 260.571C241.202 260.571 239.781 260.415 238.609 260.103C237.438 259.79 236.5 259.224 235.797 258.403C234.605 257.026 234.01 254.688 234.01 251.387ZM265.683 259.194C266.474 259.146 267.23 258.94 267.953 258.579C268.686 258.208 269.271 257.671 269.711 256.968C270.17 256.235 270.399 255.352 270.399 254.316V254.155C270.37 253.052 269.95 252.207 269.14 251.621C268.769 251.348 268.319 251.133 267.792 250.977C266.757 250.693 265.697 250.493 264.613 250.376C263.539 250.259 262.519 249.966 261.552 249.497C260.683 249.087 260.033 248.486 259.604 247.695C259.174 246.895 258.959 246.025 258.959 245.088C258.959 243.252 259.599 241.753 260.878 240.591C262.187 239.38 263.837 238.774 265.829 238.774H266.269C268.446 238.872 270.297 239.414 271.82 240.4L271.469 243.477C271.449 243.652 271.356 243.74 271.19 243.74H271.132C271.005 243.73 270.883 243.594 270.766 243.33C270.346 242.451 269.735 241.704 268.935 241.089C268.134 240.464 267.27 240.132 266.342 240.093H266.107C265.209 240.093 264.408 240.254 263.705 240.576C263.246 240.811 262.88 241.069 262.606 241.353C262.353 241.626 262.128 241.963 261.933 242.363C261.776 242.686 261.654 243.062 261.566 243.491C261.498 243.804 261.464 244.102 261.464 244.385C261.464 244.766 261.522 245.117 261.64 245.439C261.845 246.094 262.196 246.597 262.694 246.948C263.075 247.231 263.49 247.427 263.939 247.534C264.184 247.603 264.481 247.671 264.833 247.739C265.185 247.798 265.551 247.856 265.932 247.915C266.488 248.003 267.074 248.096 267.689 248.193C268.314 248.281 268.92 248.413 269.506 248.589C270.482 248.901 271.21 249.316 271.688 249.834C272.04 250.234 272.328 250.674 272.553 251.152C272.816 251.797 272.948 252.505 272.948 253.276C272.948 255.366 272.099 257.104 270.399 258.491C269.521 259.214 268.549 259.746 267.484 260.088C266.625 260.361 265.707 260.518 264.73 260.557C264.516 260.566 264.306 260.571 264.101 260.571C262.743 260.571 261.444 260.381 260.204 260L258.812 256.133C258.793 256.084 258.783 256.035 258.783 255.986C258.783 255.889 258.817 255.791 258.886 255.693C258.964 255.566 259.066 255.503 259.193 255.503C259.311 255.532 259.433 255.674 259.56 255.928C260.185 257.285 260.971 258.193 261.918 258.652C262.699 259.033 263.69 259.224 264.892 259.224C265.146 259.224 265.409 259.214 265.683 259.194ZM315.522 241.587V257.861C315.522 258.496 315.767 258.901 316.255 259.077C316.753 259.243 317.002 259.448 317.002 259.692C317.002 259.897 316.899 260 316.694 260H311.729C311.523 260 311.421 259.897 311.421 259.692C311.421 259.448 311.665 259.243 312.153 259.077C312.642 258.901 312.886 258.496 312.886 257.861V242.173L304.434 260.439H303.862L295.498 242.861V257.861C295.498 258.496 295.742 258.901 296.23 259.077C296.719 259.243 296.963 259.448 296.963 259.692C296.963 259.897 296.86 260 296.655 260H292.935C292.729 260 292.627 259.897 292.627 259.692C292.627 259.448 292.871 259.243 293.359 259.077C293.848 258.901 294.092 258.496 294.092 257.861V241.587C294.092 240.962 293.848 240.562 293.359 240.386C292.871 240.21 292.627 239.995 292.627 239.741C292.627 239.536 292.729 239.434 292.935 239.434H296.831L304.844 255.869L312.607 239.434H316.694C316.899 239.434 317.002 239.536 317.002 239.741C317.002 239.995 316.753 240.21 316.255 240.386C315.767 240.562 315.522 240.962 315.522 241.587ZM329.5 258.623H335.755C336.663 258.623 337.43 258.276 338.055 257.583C338.689 256.88 339.168 256.333 339.49 255.942C339.666 255.728 339.803 255.62 339.9 255.62C340.105 255.62 340.208 255.723 340.208 255.928C340.208 256.055 340.198 256.157 340.179 256.235L339.109 260H325.647C325.472 260 325.384 259.897 325.384 259.692C325.384 259.448 325.628 259.243 326.116 259.077C326.604 258.901 326.849 258.496 326.849 257.861V241.587C326.849 240.952 326.604 240.552 326.116 240.386C325.628 240.21 325.384 239.995 325.384 239.741C325.384 239.536 325.486 239.434 325.691 239.434H339.285V243.198C339.285 243.403 339.183 243.506 338.978 243.506C338.88 243.506 338.699 243.311 338.436 242.92C337.947 242.246 337.522 241.724 337.161 241.353C336.81 240.981 336.341 240.796 335.755 240.796H329.5V248.75H332.854C333.479 248.75 333.89 248.501 334.085 248.003C334.28 247.495 334.505 247.241 334.759 247.241C334.954 247.241 335.052 247.344 335.052 247.549V251.27C335.052 251.475 334.954 251.577 334.759 251.577C334.505 251.577 334.266 251.328 334.041 250.83C333.816 250.332 333.392 250.083 332.767 250.083H329.5V258.623ZM352.325 241.587V257.847C352.325 258.491 352.569 258.901 353.058 259.077C353.546 259.243 353.79 259.448 353.79 259.692C353.79 259.897 353.688 260 353.482 260H348.517C348.321 260 348.224 259.897 348.224 259.692C348.224 259.448 348.468 259.243 348.956 259.077C349.444 258.901 349.688 258.496 349.688 257.861V241.587C349.688 240.952 349.444 240.552 348.956 240.386C348.468 240.21 348.224 239.995 348.224 239.741C348.224 239.536 348.326 239.434 348.531 239.434H353.482C353.688 239.434 353.79 239.536 353.79 239.741C353.79 239.995 353.546 240.21 353.058 240.386C352.569 240.552 352.325 240.952 352.325 241.587ZM382.533 248.413C382.553 248.735 382.562 249.048 382.562 249.351C382.562 250.972 382.265 252.427 381.669 253.716C380.946 255.259 379.94 256.528 378.651 257.524C376.464 259.204 373.798 260.063 370.653 260.103H369.481C368.915 260.103 368.383 260.098 367.885 260.088H366.171C365.36 260.088 364.745 260.073 364.325 260.044H363.974C363.583 260.044 363.075 260.073 362.45 260.132C362.245 260.132 362.143 260.024 362.143 259.81C362.143 259.565 362.387 259.355 362.875 259.18C363.363 259.004 363.607 258.599 363.607 257.964V241.514C363.607 240.889 363.363 240.493 362.875 240.327C362.387 240.151 362.143 239.937 362.143 239.683C362.143 239.478 362.245 239.375 362.45 239.375C362.86 239.385 363.275 239.39 363.695 239.39C364.105 239.39 364.525 239.385 364.955 239.375C365.795 239.346 366.615 239.321 367.416 239.302H368.28C369.774 239.302 371.278 239.341 372.792 239.419C374.579 239.526 376.19 239.888 377.626 240.503C378.974 241.099 380.092 242.017 380.98 243.257C381.869 244.487 382.387 246.206 382.533 248.413ZM366.405 240.767V258.535C367.616 258.76 368.778 258.872 369.892 258.872C370.321 258.872 370.741 258.857 371.151 258.828C372.646 258.711 373.969 258.35 375.121 257.744C376.498 257.021 377.582 255.918 378.373 254.434C379.096 253.066 379.457 251.328 379.457 249.219V248.735C379.418 247.153 379.135 245.83 378.607 244.766C378.09 243.691 377.401 242.832 376.542 242.188C375.282 241.25 373.754 240.698 371.957 240.532C371.342 240.483 370.722 240.459 370.097 240.459C368.896 240.459 367.665 240.562 366.405 240.767ZM394.665 241.587V257.847C394.665 258.491 394.909 258.901 395.397 259.077C395.886 259.243 396.13 259.448 396.13 259.692C396.13 259.897 396.027 260 395.822 260H390.856C390.661 260 390.563 259.897 390.563 259.692C390.563 259.448 390.808 259.243 391.296 259.077C391.784 258.901 392.028 258.496 392.028 257.861V241.587C392.028 240.952 391.784 240.552 391.296 240.386C390.808 240.21 390.563 239.995 390.563 239.741C390.563 239.536 390.666 239.434 390.871 239.434H395.822C396.027 239.434 396.13 239.536 396.13 239.741C396.13 239.995 395.886 240.21 395.397 240.386C394.909 240.552 394.665 240.952 394.665 241.587Z" fill="white"/>
<mask id="mask0_46_129" style="mask-type:alpha" maskUnits="userSpaceOnUse" x="71" y="272" width="361" height="64">
<rect width="361" height="64" transform="translate(71 272)" fill="white"/>
</mask>
<g mask="url(#mask0_46_129)">
<path d="M81.1814 336V331.14H93.8714C96.3914 331.14 97.6514 330.06 97.6514 327.9V174C97.6514 171.84 96.3914 170.76 93.8714 170.76H81.1814V165.9H144.361C157.861 165.9 169.381 169.59 178.921 176.97C188.641 184.35 193.501 193.89 193.501 205.59C193.501 214.59 191.071 222.51 186.211 229.35C181.531 236.01 175.231 241.05 167.311 244.47C178.651 246.99 187.831 252.12 194.851 259.86C202.051 267.6 205.651 277.95 205.651 290.91C205.651 303.69 200.341 314.4 189.721 323.04C179.101 331.68 166.231 336 151.111 336H81.1814ZM149.761 249.33H119.791V328.44H149.761C160.561 328.44 168.931 324.48 174.871 316.56C180.991 308.64 184.051 299.37 184.051 288.75C184.051 278.13 180.991 268.95 174.871 261.21C168.931 253.29 160.561 249.33 149.761 249.33ZM138.691 173.46H119.791V242.58H140.311C150.931 242.58 158.851 238.98 164.071 231.78C169.291 224.58 171.901 216.21 171.901 206.67C171.901 196.95 169.201 189.03 163.801 182.91C158.401 176.61 150.031 173.46 138.691 173.46ZM363.802 336V331.14H376.492C379.012 331.14 380.272 330.06 380.272 327.9V189.93L323.842 336H314.662L258.232 193.98V327.36C258.232 329.88 259.492 331.14 262.012 331.14H274.702V336H232.582V331.14H245.272C247.792 331.14 249.052 329.88 249.052 327.36V174C249.052 171.84 247.792 170.76 245.272 170.76H232.582V165.9H271.192L326.272 305.49L380.272 165.9H418.882V170.76H406.192C403.672 170.76 402.412 172.02 402.412 174.54V327.9C402.412 330.06 403.672 331.14 406.192 331.14H418.882V336H363.802Z" fill="white"/>
</g>
<mask id="mask1_46_129" style="mask-type:alpha" maskUnits="userSpaceOnUse" x="74" y="157" width="358" height="71">
<rect width="358" height="71" transform="translate(74 157)" fill="white"/>
</mask>
<g mask="url(#mask1_46_129)">
<path d="M81.1814 336V331.14H93.8714C96.3914 331.14 97.6514 330.06 97.6514 327.9V174C97.6514 171.84 96.3914 170.76 93.8714 170.76H81.1814V165.9H144.361C157.861 165.9 169.381 169.59 178.921 176.97C188.641 184.35 193.501 193.89 193.501 205.59C193.501 214.59 191.071 222.51 186.211 229.35C181.531 236.01 175.231 241.05 167.311 244.47C178.651 246.99 187.831 252.12 194.851 259.86C202.051 267.6 205.651 277.95 205.651 290.91C205.651 303.69 200.341 314.4 189.721 323.04C179.101 331.68 166.231 336 151.111 336H81.1814ZM149.761 249.33H119.791V328.44H149.761C160.561 328.44 168.931 324.48 174.871 316.56C180.991 308.64 184.051 299.37 184.051 288.75C184.051 278.13 180.991 268.95 174.871 261.21C168.931 253.29 160.561 249.33 149.761 249.33ZM138.691 173.46H119.791V242.58H140.311C150.931 242.58 158.851 238.98 164.071 231.78C169.291 224.58 171.901 216.21 171.901 206.67C171.901 196.95 169.201 189.03 163.801 182.91C158.401 176.61 150.031 173.46 138.691 173.46ZM363.802 336V331.14H376.492C379.012 331.14 380.272 330.06 380.272 327.9V189.93L323.842 336H314.662L258.232 193.98V327.36C258.232 329.88 259.492 331.14 262.012 331.14H274.702V336H232.582V331.14H245.272C247.792 331.14 249.052 329.88 249.052 327.36V174C249.052 171.84 247.792 170.76 245.272 170.76H232.582V165.9H271.192L326.272 305.49L380.272 165.9H418.882V170.76H406.192C403.672 170.76 402.412 172.02 402.412 174.54V327.9C402.412 330.06 403.672 331.14 406.192 331.14H418.882V336H363.802Z" fill="white"/>
</g>
</svg>
