<svg width="340" height="100" viewBox="0 0 340 100" fill="none" xmlns="http://www.w3.org/2000/svg">
<path d="M252.5 87.5V12.5H327.5V87.5H252.5Z" fill="#FFD600"/>
<path d="M301.538 68.6395C302.979 70.9812 304.546 73.2249 307.865 73.2249C310.652 73.2249 312.115 71.8395 312.115 69.9228C312.115 67.6291 310.602 66.8145 307.535 65.4791L305.854 64.7624C301.002 62.7041 297.775 60.1249 297.775 54.677C297.775 49.6562 301.619 45.8353 307.625 45.8353C311.902 45.8353 314.975 47.3166 317.192 51.1958L311.954 54.5437C310.802 52.4853 309.556 51.6749 307.625 51.6749C305.654 51.6749 304.406 52.9187 304.406 54.5437C304.406 56.552 305.656 57.3645 308.542 58.6083L310.223 59.3249C315.942 61.7603 319.167 64.2478 319.167 69.8395C319.167 75.8645 314.408 79.1666 308.021 79.1666C301.773 79.1666 298.225 76.0312 296.25 72.1499L301.538 68.6395ZM277.4 68.8103C278.454 70.6978 280.056 72.1499 282.36 72.1499C284.565 72.1499 285.833 71.2791 285.833 67.8937V45.8333H292.777V68.9603C292.777 75.9749 288.708 79.1666 282.767 79.1666C277.398 79.1666 273.523 75.5291 271.944 72.1499L277.4 68.8103Z" fill="#000001"/>
<path d="M205.417 10.4167H134.583L140.833 81.2501L170 89.5834L199.167 81.2501L205.417 10.4167Z" fill="#0277BD"/>
<path d="M170 16.6667V83.1251L193.333 76.4584L198.542 16.6667H170Z" fill="#039BE5"/>
<path d="M188.958 27.0833H170V35.4166H180.208L179.583 43.7499H170V52.0833H179.167L178.542 61.4583L170 64.3749V73.1249L186.458 67.7083L187.917 43.7499L188.958 27.0833Z" fill="white"/>
<path d="M170 27.0833V35.4166H151.458L150.833 27.0833H170ZM160.417 43.7499L160.833 52.0833H170V43.7499H160.417ZM161.25 56.2499H152.917L153.542 67.7083L170 73.1249V64.3749L161.458 61.4583L161.25 56.2499Z" fill="#EEEEEE"/>
<path d="M85.4167 10.4167H14.5833L20.8333 81.2501L50 89.5834L79.1667 81.2501L85.4167 10.4167Z" fill="#E65100"/>
<path d="M50 16.6667V83.1251L73.3333 76.4584L78.5417 16.6667H50Z" fill="#FF6D00"/>
<path d="M50 52.0833V43.7499H67.9167L66.4583 67.7083L50 73.1249V64.3749L58.5417 61.4583L59.1667 52.0833H50ZM68.5417 35.4166L69.1667 27.0833H50V35.4166H68.5417Z" fill="white"/>
<path d="M50 64.3749V73.1249L33.5417 67.7083L32.7083 56.2499H41.0417L41.4583 61.4583L50 64.3749ZM39.7917 35.4166H50V27.0833H31.0417L32.5 52.0833H50V43.7499H40.4167L39.7917 35.4166Z" fill="#EEEEEE"/>
</svg>
